<svg width="696" height="123" viewBox="0 0 696 123" fill="none" xmlns="http://www.w3.org/2000/svg">
    <defs>
        <linearGradient id="paint0_linear_65_18" x1="25.0235" y1="21.9148" x2="364.985" y2="383.07" gradientUnits="userSpaceOnUse">
            <stop stop-color="#FF6C6C"></stop>
            <stop offset="0.205" stop-color="#FFA268"></stop>
            <stop offset="0.47" stop-color="#FFE96B"></stop>
            <stop offset="0.73" stop-color="#6BFFFF"></stop>
            <stop offset="1" stop-color="#C869FF"></stop>
        </linearGradient>
    </defs>
    <path d="M90.8844 76.8L117.914 121H84.7644L60.2844 79.01H27.9844V121H0.444375V1.99999H65.8944C92.2444 1.99999 111.624 12.54 111.624 40.42C111.624 56.4 102.954 67.62 90.8844 73.74V76.8ZM67.9344 27.84H27.9844V53.17H67.9344C78.4744 53.17 83.9144 48.24 83.9144 40.42C83.9144 32.09 78.4744 27.84 67.9344 27.84ZM177.699 122.7C142.679 122.7 124.149 103.83 124.149 75.78C124.149 47.56 142.679 28.69 177.699 28.69C212.549 28.69 231.079 47.56 231.079 75.78C231.079 103.83 212.549 122.7 177.699 122.7ZM177.699 98.73C195.719 98.73 204.219 89.55 204.219 75.78C204.219 61.84 195.719 52.66 177.699 52.66C159.849 52.66 151.009 61.84 151.009 75.78C151.009 89.55 159.849 98.73 177.699 98.73ZM310.991 121H274.441L226.161 1.99999H255.911L290.931 95.16H294.161L329.351 1.99999H359.101L310.991 121ZM390.622 122.7C368.182 122.7 355.092 110.29 355.092 94.31C355.092 74.42 370.562 66.09 397.422 66.09H427.172V65.75C426.322 53.85 419.182 49.09 404.902 49.09C393.682 49.09 381.442 51.98 367.332 58.95L357.982 40.93C371.922 33.79 387.222 28.69 404.902 28.69C430.232 28.69 452.672 37.87 452.672 70.17V121H427.172V109.61L423.942 108.93C416.122 116.92 405.412 122.7 390.622 122.7ZM395.722 103.32C407.962 103.32 420.202 97.2 427.172 89.89V85.13H397.082C385.182 85.13 380.932 88.7 380.932 94.14C380.932 100.09 385.862 103.32 395.722 103.32ZM497.255 121H470.735V0.299994H497.255V121ZM542.411 121H515.891V30.39H542.411V44.16L545.641 45.18C550.571 34.47 559.581 28.69 574.541 28.69C580.151 28.69 585.251 29.37 590.181 30.56V56.06C584.401 54.53 576.071 53.17 568.761 53.17C555.501 53.17 547.851 58.61 542.411 65.07V121ZM633.503 122.7C611.063 122.7 597.973 110.29 597.973 94.31C597.973 74.42 613.443 66.09 640.303 66.09H670.053V65.75C669.203 53.85 662.063 49.09 647.783 49.09C636.563 49.09 624.323 51.98 610.213 58.95L600.863 40.93C614.803 33.79 630.103 28.69 647.783 28.69C673.113 28.69 695.553 37.87 695.553 70.17V121H670.053V109.61L666.823 108.93C659.003 116.92 648.293 122.7 633.503 122.7ZM638.603 103.32C650.843 103.32 663.083 97.2 670.053 89.89V85.13H639.963C628.063 85.13 623.813 88.7 623.813 94.14C623.813 100.09 628.743 103.32 638.603 103.32Z" fill="url(#paint0_linear_65_18)"></path>
</svg>
